<svg version="1.1" id="Layer_1" xmlns="http://www.w3.org/2000/svg" xmlns:xlink="http://www.w3.org/1999/xlink" x="0px" y="0px"
	 width="100%" viewBox="0 0 3840 2160" enable-background="new 0 0 3840 2160" xml:space="preserve">
<path fill="#47704C" opacity="1.000000" stroke="none" 
	d="
M2884.000000,2162.000000 
	C1922.666870,2162.000000 962.333679,2162.000000 2.000387,2162.000000 
	C2.000258,1442.000244 2.000258,722.000610 2.000129,2.000677 
	C1281.999390,2.000451 2561.998779,2.000451 3841.998535,2.000226 
	C3841.999023,721.999329 3841.999023,1441.998657 3841.999512,2161.999023 
	C3523.000000,2162.000000 3204.000000,2162.000000 2884.000000,2162.000000 
M2555.599609,903.886536 
	C2555.701172,904.516235 2555.798584,905.146606 2554.297363,906.155212 
	C2537.609375,909.129822 2520.814453,911.606567 2504.252197,915.166382 
	C2437.734863,929.463379 2376.667725,956.989746 2319.005127,992.534058 
	C2239.381592,1041.615479 2168.660645,1101.333496 2105.808105,1170.561279 
	C2076.685791,1202.637695 2049.172852,1235.980957 2023.395752,1270.778320 
	C2021.303955,1273.602051 2019.453735,1276.604736 2017.194824,1279.965332 
	C2019.627930,1281.335327 2020.952148,1282.309448 2022.432007,1282.879761 
	C2043.463989,1290.985718 2062.395264,1302.783325 2079.923096,1316.706177 
	C2099.722656,1332.433594 2118.882812,1348.963379 2138.493896,1364.931763 
	C2147.664795,1372.399292 2157.242432,1379.367310 2167.519775,1387.238770 
	C2170.596191,1381.075562 2173.032227,1376.399780 2175.287598,1371.638306 
	C2182.555420,1356.294800 2189.471436,1340.777954 2197.032959,1325.581543 
	C2228.989258,1261.360107 2264.901123,1199.467773 2307.525635,1141.679810 
	C2334.205078,1105.509277 2361.516357,1069.769897 2395.095703,1039.500244 
	C2419.854980,1017.181152 2447.870605,1000.161560 2479.395752,989.060303 
	C2509.887451,978.322815 2541.218506,974.253784 2573.536621,975.469360 
	C2595.281250,976.287354 2616.910889,978.128418 2637.555176,984.568542 
	C2656.222168,990.391968 2674.216064,998.546326 2692.136475,1006.505981 
	C2699.303223,1009.689087 2704.766846,1009.540588 2711.326904,1005.287109 
	C2740.912598,986.104126 2773.198486,972.942505 2807.126221,963.682556 
	C2847.312744,952.714417 2887.989014,944.588989 2929.642334,941.512207 
	C2955.957520,939.568359 2982.119141,939.654785 3008.222656,943.660461 
	C3015.804932,944.823975 3023.381348,946.025635 3030.960693,947.209778 
	C3022.280273,936.717102 3013.206787,927.556091 3003.484619,919.145142 
	C2948.083252,871.216919 2885.654053,835.707642 2815.256348,815.056946 
	C2757.460938,798.102966 2698.856445,795.145935 2639.632812,807.576782 
	C2612.517090,813.268311 2586.330811,821.965576 2559.974854,830.249878 
	C2550.247559,833.307495 2539.949463,835.390320 2529.794922,836.011536 
	C2519.441406,836.644897 2512.979980,827.106140 2515.573730,816.985474 
	C2516.384277,813.822632 2517.634766,810.615540 2519.387695,807.879700 
	C2525.192627,798.819214 2532.475586,791.129395 2541.508301,785.121399 
	C2554.545410,776.449768 2567.494385,767.645142 2580.449219,758.850342 
	C2582.831787,757.232971 2585.063721,755.393127 2588.683838,752.660156 
	C2585.453857,752.359375 2583.836182,751.804382 2582.431885,752.140442 
	C2567.895752,755.619507 2553.162842,758.505859 2538.927979,762.970215 
	C2503.443604,774.098877 2472.899658,794.338684 2443.837402,816.875061 
	C2418.846436,836.253845 2394.351807,856.270569 2369.516602,875.851929 
	C2360.091309,883.283264 2350.293457,890.205444 2338.645996,893.939270 
	C2332.090820,896.040527 2325.145264,897.683044 2319.777100,892.436584 
	C2313.835693,886.630066 2315.865723,879.356445 2319.295898,872.956360 
	C2328.561768,855.668152 2338.139160,838.546753 2347.613037,821.370178 
	C2349.269531,818.366516 2351.024414,815.417053 2352.734131,812.442688 
	C2352.170410,811.925781 2351.606934,811.408813 2351.043213,810.891907 
	C2348.575684,812.185486 2345.957275,813.256104 2343.662598,814.805542 
	C2302.347656,842.702881 2264.794434,875.099426 2231.097900,911.729126 
	C2189.798828,956.623047 2155.931641,1006.709534 2130.641357,1062.356079 
	C2123.898193,1077.192871 2117.968750,1092.401733 2111.801270,1107.495239 
	C2110.634766,1110.349854 2108.509033,1113.807617 2113.529297,1115.668823 
	C2121.046387,1107.260986 2128.290527,1098.641846 2136.073486,1090.540405 
	C2175.597656,1049.399048 2220.984375,1015.835022 2270.246094,987.333069 
	C2337.646484,948.336670 2408.569336,918.762451 2486.123535,907.167236 
	C2509.149414,903.724609 2532.268799,900.928528 2555.599609,903.886536 
M1307.859131,53.632027 
	C1216.634521,119.566734 1160.782104,208.641327 1135.689697,320.176147 
	C1122.583496,291.644623 1120.953247,263.251038 1117.499512,232.913086 
	C1113.294800,238.798309 1110.460205,242.418884 1107.992188,246.274185 
	C1082.836548,285.569458 1069.654907,328.971466 1066.601929,375.133209 
	C1063.965088,415.003174 1064.529297,454.956543 1071.801636,494.536682 
	C1081.485107,547.239075 1101.184692,595.378052 1135.984619,636.676147 
	C1141.845459,643.631470 1147.015747,651.415527 1156.744995,657.367188 
	C1138.899048,580.171143 1151.325562,508.398956 1184.472656,439.152283 
	C1199.799438,484.927521 1220.863159,527.216980 1251.789673,564.174744 
	C1282.901611,601.353943 1320.519897,630.032227 1365.634888,652.117249 
	C1365.366455,646.241333 1365.369507,642.334412 1364.971680,638.468811 
	C1364.224121,631.202148 1362.845703,623.982300 1362.427368,616.702881 
	C1359.740112,569.943909 1362.173096,523.576721 1373.712646,477.964691 
	C1376.367432,467.470856 1376.268188,456.966644 1374.509766,446.316132 
	C1370.375610,421.276764 1368.570435,396.195374 1372.827637,370.903198 
	C1378.843506,335.163147 1393.679565,303.730499 1417.689819,276.610870 
	C1454.831543,234.659470 1502.072021,217.170441 1556.673584,225.078903 
	C1618.499146,234.033676 1659.377686,271.072113 1680.474243,329.489044 
	C1692.383423,362.466400 1695.467163,396.665558 1692.556885,431.684967 
	C1690.161377,460.508942 1684.108765,488.283752 1672.637085,514.733398 
	C1666.693115,528.437988 1659.496460,541.616150 1652.516968,554.848206 
	C1648.433105,562.590637 1647.572876,570.771179 1652.531006,577.509949 
	C1661.183350,589.269409 1670.524414,600.700378 1680.814941,611.036438 
	C1698.653320,628.953674 1717.467407,645.897644 1735.816162,663.308960 
	C1763.102173,689.200684 1790.317261,715.167236 1817.620850,741.040283 
	C1821.678101,744.885071 1826.054199,748.393616 1830.597778,752.330688 
	C1832.902100,749.611023 1834.888794,747.424683 1836.702026,745.102905 
	C1890.182617,676.620667 1925.916504,599.486938 1947.892090,515.769836 
	C1960.878540,466.297546 1964.433838,415.943695 1957.369995,365.313751 
	C1949.713745,310.436737 1932.281738,258.517548 1905.224365,210.031769 
	C1877.805420,160.898239 1840.957397,120.229126 1793.782227,89.487717 
	C1729.234131,47.425465 1657.776855,26.294155 1581.162964,22.489824 
	C1548.192749,20.852652 1515.389404,23.813627 1482.872070,29.861341 
	C1419.293091,41.686054 1362.210815,66.836494 1314.251953,111.063080 
	C1310.239014,114.763870 1305.723877,117.920197 1300.438110,122.128754 
	C1300.062256,118.996414 1299.763306,117.434822 1299.703735,115.864166 
	C1299.194580,102.433121 1301.461060,89.350540 1304.714722,76.391983 
	C1306.572144,68.994476 1308.376221,61.583572 1310.915771,53.788097 
	C1310.285278,53.508343 1309.654907,53.228592 1307.859131,53.632027 
M1518.069702,807.073425 
	C1516.451050,805.411621 1514.705078,803.854858 1513.233032,802.071960 
	C1495.601562,780.713745 1477.280884,759.909485 1453.970093,744.592712 
	C1430.338501,729.065186 1406.240112,714.200928 1381.867432,699.859741 
	C1345.431274,678.420227 1308.425049,657.922974 1274.045410,633.186157 
	C1239.754150,608.512878 1211.589600,578.382019 1192.369385,540.399841 
	C1191.402344,538.488831 1190.018433,536.788635 1187.742798,533.348938 
	C1173.442139,589.003296 1180.367310,640.163025 1207.829224,690.148804 
	C1188.465698,686.634155 1171.312988,682.809509 1153.956055,680.568176 
	C1136.188110,678.273743 1118.239380,677.168518 1100.334106,676.211426 
	C1082.947754,675.281982 1065.500488,674.742554 1047.863159,677.736694 
	C1051.327637,681.322449 1055.086060,683.873352 1058.853882,686.410583 
	C1081.059204,701.364197 1101.394287,718.491394 1118.473999,739.172058 
	C1128.019409,750.730042 1136.762695,762.942017 1142.283081,777.087952 
	C1148.894653,794.030151 1145.686646,807.388733 1131.860962,819.160828 
	C1127.065674,823.243896 1122.047974,827.234375 1116.614502,830.371155 
	C1083.764648,849.335266 1050.901611,868.284607 1017.775879,886.760071 
	C986.649719,904.120239 955.469604,921.346313 927.227905,943.281799 
	C919.496033,949.287170 912.120239,955.751038 904.581055,962.004517 
	C910.495789,963.704834 915.670776,964.132324 920.753052,963.627319 
	C938.263184,961.887634 955.699158,959.165344 973.241821,958.048889 
	C994.554321,956.692566 1015.838501,957.737549 1036.476685,964.205017 
	C1054.770020,969.937744 1070.214233,979.648926 1081.349365,995.722595 
	C1092.276489,1011.496155 1095.132568,1029.465088 1095.536743,1047.892822 
	C1096.057739,1071.655273 1091.915771,1094.892944 1085.624146,1117.764160 
	C1083.703979,1124.744873 1081.922119,1131.763794 1080.076904,1138.765137 
	C1080.556274,1139.211792 1081.035645,1139.658569 1081.515015,1140.105225 
	C1157.076660,1075.921509 1240.054199,1024.815063 1335.711182,996.067444 
	C1335.525146,995.413452 1335.339111,994.759460 1335.153076,994.105530 
	C1305.246704,988.651550 1275.340210,983.197632 1243.256714,977.346619 
	C1249.578003,971.172180 1254.281616,966.146301 1259.426147,961.621582 
	C1298.405151,927.338928 1344.562012,907.666931 1394.482422,895.896423 
	C1418.460205,890.242737 1442.776123,887.087402 1467.410889,885.342651 
	C1487.822144,883.897034 1507.861694,884.569031 1527.815796,889.321289 
	C1527.811523,890.036133 1527.807129,890.751038 1526.101196,891.727234 
	C1515.568848,893.140503 1505.011108,894.388977 1494.508301,895.995178 
	C1444.362061,903.664124 1396.921997,919.230896 1352.978149,944.870605 
	C1350.030884,946.590149 1347.291870,948.666748 1342.638794,951.801636 
	C1377.283936,959.466431 1409.536499,966.751648 1442.441772,977.468628 
	C1438.881470,979.911987 1436.655640,981.759399 1434.158936,983.103882 
	C1406.394287,998.054260 1381.448853,1016.684265 1359.793335,1039.665649 
	C1339.736084,1060.951050 1324.067749,1085.127808 1312.192627,1111.798584 
	C1311.376831,1113.630859 1311.208984,1115.751587 1310.683105,1117.977783 
	C1311.957642,1117.921387 1312.343018,1118.012329 1312.615601,1117.876831 
	C1344.196533,1102.177490 1377.300781,1094.817871 1412.795288,1097.438232 
	C1431.995361,1098.855591 1450.512817,1102.439941 1467.819092,1110.394897 
	C1500.081055,1125.224243 1523.688599,1148.732178 1530.011230,1184.642212 
	C1538.672607,1233.834961 1523.060791,1275.762207 1486.976685,1310.148926 
	C1484.281494,1312.717163 1480.371338,1314.385254 1479.567993,1320.108398 
	C1506.243408,1319.105591 1531.687012,1313.075195 1558.616821,1311.901978 
	C1557.527222,1315.150269 1557.139282,1317.078125 1556.275635,1318.761719 
	C1547.834839,1335.214111 1536.837524,1349.783081 1523.000122,1362.027100 
	C1514.315918,1369.711548 1505.055298,1376.744507 1495.404785,1384.288330 
	C1495.692627,1384.641113 1495.980469,1384.993774 1498.005493,1385.584839 
	C1507.916504,1384.706055 1517.989990,1384.672241 1527.711060,1382.804932 
	C1574.162476,1373.881714 1615.082520,1353.151123 1651.193359,1322.903809 
	C1662.442139,1313.481812 1672.511841,1302.733521 1679.052856,1289.287354 
	C1680.525635,1286.260132 1681.282227,1282.884399 1682.809937,1278.362305 
	C1678.338745,1278.706421 1675.782593,1278.968872 1673.219727,1279.088623 
	C1664.251709,1279.507690 1655.258057,1280.478882 1646.317017,1280.133301 
	C1630.470581,1279.520752 1620.317749,1270.067871 1618.391846,1254.253418 
	C1617.595825,1247.716553 1617.575073,1240.876953 1618.542969,1234.374634 
	C1620.988647,1217.943726 1624.235107,1201.633179 1627.062744,1185.257324 
	C1627.635132,1181.942749 1627.776855,1178.553711 1628.240234,1173.984009 
	C1620.906982,1178.844971 1615.441895,1183.250244 1609.320068,1186.363647 
	C1596.396484,1192.936279 1584.766113,1188.862061 1578.766235,1175.756836 
	C1574.842529,1167.186279 1572.706543,1158.127808 1575.536499,1148.603027 
	C1581.407715,1128.842896 1587.233887,1109.069336 1593.104980,1089.309204 
	C1595.446289,1081.428589 1597.856689,1073.568481 1600.422729,1065.080322 
	C1570.493530,1055.336304 1540.343628,1053.471191 1510.238770,1050.402466 
	C1510.195557,1049.675903 1510.152466,1048.949341 1511.538696,1047.748901 
	C1515.977173,1046.346924 1520.373413,1044.789917 1524.860596,1043.566895 
	C1576.969238,1029.364990 1630.166992,1024.207886 1683.966309,1025.955688 
	C1703.826294,1026.600830 1723.666260,1029.520508 1743.385986,1032.315674 
	C1760.459717,1034.735840 1768.003296,1045.509521 1766.097900,1062.617554 
	C1765.877808,1064.593994 1765.560547,1066.607056 1764.930054,1068.482788 
	C1761.651367,1078.236450 1758.614380,1088.094238 1754.797607,1097.637573 
	C1751.269531,1106.458740 1746.862549,1114.928589 1742.460938,1124.372314 
	C1745.713989,1124.921265 1747.896240,1125.474731 1750.107056,1125.633911 
	C1772.316040,1127.231689 1794.567993,1128.359375 1816.729980,1130.446167 
	C1833.972656,1132.069824 1850.970459,1135.274658 1866.760010,1143.118774 
	C1881.886841,1150.633423 1893.695679,1161.499512 1900.998535,1176.784180 
	C1909.492920,1194.562378 1909.393188,1213.496460 1907.582764,1232.556152 
	C1907.163696,1236.967041 1906.527710,1241.357422 1905.727051,1247.927734 
	C1911.834839,1244.887085 1916.084229,1243.152954 1919.944336,1240.784424 
	C1937.761963,1229.851685 1952.532104,1215.512817 1965.271118,1199.074219 
	C1995.931763,1159.508789 2014.490234,1114.747803 2021.485229,1065.285400 
	C2023.811157,1048.838623 2024.732666,1032.196411 2021.744141,1015.639648 
	C2021.269775,1013.011108 2020.459351,1010.443115 2019.309082,1005.885559 
	C2002.063232,1033.142212 1982.565796,1054.430420 1952.299683,1064.153442 
	C1950.814697,1049.864380 1948.857788,1037.159668 1940.291504,1026.448853 
	C1933.432129,1017.872192 1924.548096,1012.284607 1915.052856,1007.305115 
	C1908.401978,1003.817322 1906.262817,999.344666 1907.140381,991.940125 
	C1910.243774,965.756653 1907.606689,940.073669 1899.508301,915.064270 
	C1888.087402,879.794861 1869.269775,848.497192 1846.743652,819.307800 
	C1823.252563,788.867981 1795.388306,762.580200 1767.629883,736.191162 
	C1733.126221,703.390076 1698.583496,670.628784 1664.256470,637.643616 
	C1645.733643,619.844788 1629.061279,600.342651 1614.075439,579.491028 
	C1586.315308,540.865051 1568.525024,498.414856 1565.598267,450.398071 
	C1565.313965,445.733246 1564.218018,441.117889 1563.498657,436.479553 
	C1559.323975,440.927643 1556.455200,445.388184 1554.432129,450.203979 
	C1537.945557,489.452728 1532.886719,530.265930 1538.349976,572.402710 
	C1540.781860,591.158813 1548.179077,607.063171 1562.989136,619.872864 
	C1582.609985,636.843506 1601.207764,655.000244 1620.173950,672.723511 
	C1637.683594,689.085510 1654.939087,705.722656 1672.593872,721.925537 
	C1698.426147,745.633362 1722.217651,771.167603 1742.915894,799.487122 
	C1756.493164,818.063538 1768.960205,837.336975 1776.528564,859.608459 
	C1776.264526,859.835205 1776.000610,860.061890 1774.513550,859.722961 
	C1770.579468,854.774353 1766.481689,849.946167 1762.738525,844.857178 
	C1741.922974,816.558044 1716.941772,792.135803 1691.418945,768.239075 
	C1671.260864,749.365173 1650.780518,730.835815 1630.580811,712.005859 
	C1612.079102,694.758606 1593.419067,677.659546 1575.444458,659.873047 
	C1550.127930,634.821411 1524.108154,610.309509 1500.675293,583.563782 
	C1462.038574,539.464539 1439.818237,487.880219 1437.588379,428.537659 
	C1437.452026,424.909973 1436.308838,421.320129 1435.634033,417.712677 
	C1430.389282,422.655396 1426.407104,427.309387 1424.109253,432.683502 
	C1419.675659,443.052032 1415.730103,453.683960 1412.393921,464.458008 
	C1394.935791,520.838074 1389.038696,578.158630 1397.564331,636.907043 
	C1401.056274,660.970154 1410.820679,679.320618 1431.453857,693.703308 
	C1471.260498,721.450745 1502.481445,756.892151 1519.038452,805.850220 
	C1519.184814,806.540955 1519.331055,807.231628 1518.069702,807.073425 
M2831.275635,2029.228516 
	C2828.002930,2029.826050 2824.734619,2030.449463 2821.456787,2031.017212 
	C2794.773193,2035.639771 2768.083496,2036.726562 2741.142822,2032.734863 
	C2702.870605,2027.063965 2668.291016,2012.265991 2635.871582,1991.764771 
	C2632.957764,1989.921997 2630.285156,1987.697388 2627.500488,1985.650024 
	C2630.647461,1983.809692 2633.146729,1983.467285 2635.627686,1983.570923 
	C2663.259033,1984.723022 2690.806641,1984.710205 2718.258545,1980.367554 
	C2788.934570,1969.187134 2848.982666,1937.856323 2896.682129,1884.530884 
	C2945.179932,1830.312744 2966.531982,1766.475464 2957.484863,1693.914917 
	C2950.718018,1639.644409 2926.260010,1593.183838 2888.943359,1553.612793 
	C2851.616943,1514.031860 2804.966797,1489.902588 2753.510986,1474.214966 
	C2731.450928,1467.489380 2708.742920,1463.892456 2685.830566,1462.614990 
	C2671.989258,1461.843018 2658.008057,1463.582031 2643.329834,1464.295044 
	C2643.600830,1464.747437 2643.871582,1465.199829 2645.481201,1466.211060 
	C2650.086914,1468.139038 2654.691895,1470.068481 2659.298340,1471.994751 
	C2689.573486,1484.655396 2714.516113,1503.775513 2732.343506,1531.722168 
	C2764.297363,1581.813477 2758.916748,1645.794067 2714.586182,1687.852661 
	C2692.921631,1708.406738 2666.932373,1721.680786 2638.742676,1730.822266 
	C2608.911377,1740.496460 2578.135254,1743.041748 2547.047607,1741.371460 
	C2539.478271,1740.964844 2531.161377,1741.638306 2523.075684,1736.556885 
	C2527.592041,1730.940430 2531.574219,1725.729858 2535.826172,1720.749512 
	C2548.461914,1705.948730 2558.901123,1689.868896 2565.765625,1671.534912 
	C2576.248047,1643.537476 2578.926758,1614.547852 2575.813477,1585.126831 
	C2569.521729,1525.668579 2544.658203,1476.270508 2495.296143,1440.691162 
	C2494.100586,1439.829590 2492.596680,1439.395996 2490.029541,1438.200684 
	C2490.628418,1443.044067 2490.812012,1446.660645 2491.552979,1450.159424 
	C2495.047119,1466.660522 2495.287598,1483.076172 2491.867188,1499.685303 
	C2481.959473,1547.789551 2434.732910,1583.556274 2385.773193,1580.073120 
	C2358.932129,1578.163452 2335.194092,1568.277710 2314.475098,1551.779663 
	C2274.908447,1520.273438 2235.845215,1488.133423 2196.684082,1456.120483 
	C2150.311035,1418.212158 2104.112061,1380.091309 2057.723877,1342.201782 
	C2036.659912,1324.996704 2012.757080,1313.461304 1985.648804,1310.209717 
	C1965.548950,1307.798706 1945.235718,1307.196777 1925.031738,1305.607178 
	C1919.088013,1305.139526 1913.103516,1304.456543 1907.292236,1303.172852 
	C1889.427368,1299.226318 1880.785400,1286.244751 1876.627930,1269.840698 
	C1873.117554,1255.989502 1870.611450,1241.881470 1867.746216,1227.869751 
	C1861.476685,1197.207886 1844.395020,1176.912231 1812.812134,1170.592896 
	C1807.278809,1169.485718 1801.659790,1168.740601 1796.049561,1168.096680 
	C1778.232056,1166.051758 1760.312622,1164.715576 1742.591064,1162.050781 
	C1699.540283,1155.577148 1670.937256,1132.185059 1659.606323,1089.284424 
	C1658.926392,1086.710205 1657.733765,1084.271240 1656.263916,1080.417236 
	C1646.583984,1100.430908 1645.405518,1119.907837 1648.868896,1139.441650 
	C1653.740356,1166.916260 1669.352051,1188.153809 1690.746216,1205.411499 
	C1708.360229,1219.619873 1726.097900,1233.675415 1743.688721,1247.912354 
	C1761.725220,1262.510010 1773.658569,1280.791626 1776.585938,1304.204346 
	C1778.480469,1319.356445 1780.112793,1334.542603 1781.751587,1349.725464 
	C1785.917847,1388.327637 1801.900879,1421.371216 1829.850220,1448.089355 
	C1847.622559,1465.078735 1866.412354,1481.057007 1885.334229,1496.780884 
	C1943.939697,1545.481689 2002.666260,1594.040039 2061.664307,1642.264160 
	C2097.885498,1671.870972 2116.104736,1710.256592 2119.618408,1756.262451 
	C2122.086426,1788.574219 2119.169434,1820.816528 2117.229492,1852.998413 
	C2115.720703,1878.029541 2114.867432,1902.883789 2120.251465,1927.443970 
	C2137.079102,2004.206421 2182.772217,2056.681641 2255.196045,2086.295654 
	C2259.199463,2087.932617 2263.361084,2089.796387 2268.743164,2089.004150 
	C2263.076172,2080.508057 2257.384033,2073.090088 2252.873047,2065.012451 
	C2236.258057,2035.261719 2228.857666,2003.475830 2231.472656,1969.222900 
	C2233.198975,1946.609985 2238.590820,1925.250977 2249.215820,1905.297119 
	C2255.145996,1894.159668 2262.302246,1883.858887 2274.030273,1875.814331 
	C2275.209229,1883.366089 2275.978760,1889.908325 2277.277344,1896.343750 
	C2283.762207,1928.481323 2293.756592,1959.469238 2309.072754,1988.526123 
	C2358.057617,2081.457520 2435.902588,2131.396729 2539.665771,2141.458740 
	C2575.275146,2144.911621 2610.759033,2141.665527 2645.828125,2134.148926 
	C2695.483398,2123.506104 2742.287598,2106.130371 2784.115723,2076.727295 
	C2802.932373,2063.500244 2820.873291,2049.311523 2834.685303,2029.673584 
	C2834.071289,2029.411743 2833.457520,2029.149902 2831.275635,2029.228516 
M817.365601,1353.918091 
	C819.016052,1352.812622 820.682434,1351.730225 822.314575,1350.598389 
	C846.657593,1333.718506 870.952332,1316.768311 895.377869,1300.009033 
	C899.535767,1297.156250 904.250183,1295.114746 910.654480,1291.642822 
	C908.925354,1296.752686 908.002747,1299.502686 907.064758,1302.247314 
	C899.208252,1325.232910 890.726440,1348.027100 883.614990,1371.240845 
	C866.658813,1426.591064 857.754333,1483.246704 857.626343,1541.235474 
	C857.541687,1579.593018 861.050293,1617.601685 867.713989,1655.343262 
	C880.110657,1725.554688 899.838501,1793.352661 933.961121,1856.411133 
	C955.509277,1896.231934 981.672546,1932.555664 1014.988525,1963.458130 
	C1016.539734,1964.897095 1018.513184,1965.880859 1021.894897,1968.156616 
	C1017.436584,1937.528198 1011.643982,1908.750244 1016.733276,1877.700806 
	C1019.624939,1881.660522 1021.453796,1883.970337 1023.076965,1886.416626 
	C1050.044922,1927.060303 1083.688477,1961.360474 1122.243164,1991.026245 
	C1158.356323,2018.813110 1197.856812,2040.698120 1239.479736,2059.006836 
	C1305.560059,2088.073730 1374.739990,2102.607422 1446.817383,2103.641113 
	C1480.814087,2104.128906 1514.565552,2101.076904 1548.171509,2096.061279 
	C1606.197388,2087.400635 1661.710815,2070.601807 1714.511475,2044.976440 
	C1791.827271,2007.453247 1856.770142,1954.008423 1912.731445,1889.403320 
	C1964.448486,1829.697510 2006.606934,1763.514771 2042.529419,1693.284912 
	C2049.130127,1680.379883 2046.927734,1670.352783 2035.777710,1660.983765 
	C2032.720337,1658.414795 2029.719116,1655.778687 2026.642090,1653.233765 
	C1976.637817,1611.875610 1926.633545,1570.517578 1876.597900,1529.197266 
	C1873.049438,1526.266968 1869.258057,1523.630859 1864.851196,1520.308838 
	C1859.592651,1528.881714 1854.771729,1536.773315 1849.919922,1544.645996 
	C1806.961670,1614.349854 1753.579468,1674.384521 1686.077881,1721.335449 
	C1660.560425,1739.084229 1633.828125,1754.615601 1604.541016,1765.307007 
	C1568.453003,1778.480957 1531.342163,1781.156860 1493.405884,1775.887939 
	C1444.354004,1769.075073 1401.559937,1749.271362 1366.156738,1714.545288 
	C1333.726318,1682.735474 1311.013184,1644.578613 1296.161133,1601.832153 
	C1278.543579,1551.126465 1276.088257,1499.134888 1283.522949,1446.222778 
	C1293.330444,1376.422241 1318.369751,1312.584961 1356.706909,1253.696899 
	C1381.334106,1215.868042 1410.307007,1181.622681 1441.905273,1149.501465 
	C1445.057983,1146.296509 1447.763916,1142.651855 1451.089722,1138.724121 
	C1448.520142,1137.484497 1447.120361,1136.540894 1445.577148,1136.104126 
	C1407.661865,1125.373535 1370.599854,1127.240112 1334.463989,1143.548340 
	C1309.947876,1154.612793 1288.371582,1170.062988 1268.019287,1187.412720 
	C1265.926514,1189.196899 1263.498413,1190.587891 1259.862305,1193.105469 
	C1259.862305,1187.897461 1259.513550,1184.595703 1259.924561,1181.391113 
	C1261.446533,1169.527344 1262.700928,1157.594360 1264.995239,1145.871094 
	C1271.570068,1112.274292 1282.959106,1080.464111 1301.429932,1051.400513 
	C1303.089722,1048.788696 1305.851685,1045.990601 1303.695801,1042.626831 
	C1303.695801,1042.626831 1303.361450,1042.902954 1303.361450,1042.902954 
	C1303.361450,1042.902954 1303.286987,1042.308350 1302.486816,1043.571045 
	C1293.127075,1047.893921 1283.698608,1052.074341 1274.418579,1056.562012 
	C1193.282593,1095.797729 1119.203247,1145.347168 1053.814575,1207.598267 
	C1049.136719,1212.051514 1044.121338,1216.150391 1038.493774,1221.088989 
	C1038.493774,1212.743774 1037.725342,1205.761230 1038.617554,1198.998047 
	C1044.739868,1152.590454 1051.248169,1106.234131 1057.533447,1059.847778 
	C1058.691772,1051.298462 1060.103394,1042.690552 1060.133789,1034.105347 
	C1060.170288,1023.825623 1055.917603,1015.173645 1046.900635,1008.222778 
	C1033.888306,1021.739929 1021.401367,1034.171875 1009.516174,1047.154785 
	C967.232544,1093.343994 928.012329,1141.940430 894.020020,1194.651978 
	C863.256775,1242.356323 837.503967,1292.566406 817.499634,1345.695557 
	C816.505188,1348.336670 816.567261,1351.375610 815.561829,1353.722046 
	C815.360107,1353.921753 815.158447,1354.121338 814.956726,1354.320923 
	C815.134888,1354.448975 815.313110,1354.576904 815.491211,1354.704956 
	C815.651550,1354.458252 815.811829,1354.211670 817.365601,1353.918091 
z"/>
<path fill="#FF1B22" opacity="1.000000" stroke="none" 
	d="
M1303.171997,1042.365967 
	C1305.851685,1045.990601 1303.089722,1048.788696 1301.429932,1051.400513 
	C1282.959106,1080.464111 1271.570068,1112.274292 1264.995239,1145.871094 
	C1262.700928,1157.594360 1261.446533,1169.527344 1259.924561,1181.391113 
	C1259.513550,1184.595703 1259.862305,1187.897461 1259.862305,1193.105469 
	C1263.498413,1190.587891 1265.926514,1189.196899 1268.019287,1187.412720 
	C1288.371582,1170.062988 1309.947876,1154.612793 1334.463989,1143.548340 
	C1370.599854,1127.240112 1407.661865,1125.373535 1445.577148,1136.104126 
	C1447.120361,1136.540894 1448.520142,1137.484497 1451.089722,1138.724121 
	C1447.763916,1142.651855 1445.057983,1146.296509 1441.905273,1149.501465 
	C1410.307007,1181.622681 1381.334106,1215.868042 1356.706909,1253.696899 
	C1318.369751,1312.584961 1293.330444,1376.422241 1283.522949,1446.222778 
	C1276.088257,1499.134888 1278.543579,1551.126465 1296.161133,1601.832153 
	C1311.013184,1644.578613 1333.726318,1682.735474 1366.156738,1714.545288 
	C1401.559937,1749.271362 1444.354004,1769.075073 1493.405884,1775.887939 
	C1531.342163,1781.156860 1568.453003,1778.480957 1604.541016,1765.307007 
	C1633.828125,1754.615601 1660.560425,1739.084229 1686.077881,1721.335449 
	C1753.579468,1674.384521 1806.961670,1614.349854 1849.919922,1544.645996 
	C1854.771729,1536.773315 1859.592651,1528.881714 1864.851196,1520.308838 
	C1869.258057,1523.630859 1873.049438,1526.266968 1876.597900,1529.197266 
	C1926.633545,1570.517578 1976.637817,1611.875610 2026.642090,1653.233765 
	C2029.719116,1655.778687 2032.720337,1658.414795 2035.777710,1660.983765 
	C2046.927734,1670.352783 2049.130127,1680.379883 2042.529419,1693.284912 
	C2006.606934,1763.514771 1964.448486,1829.697510 1912.731445,1889.403320 
	C1856.770142,1954.008423 1791.827271,2007.453247 1714.511475,2044.976440 
	C1661.710815,2070.601807 1606.197388,2087.400635 1548.171509,2096.061279 
	C1514.565552,2101.076904 1480.814087,2104.128906 1446.817383,2103.641113 
	C1374.739990,2102.607422 1305.560059,2088.073730 1239.479736,2059.006836 
	C1197.856812,2040.698120 1158.356323,2018.813110 1122.243164,1991.026245 
	C1083.688477,1961.360474 1050.044922,1927.060303 1023.076965,1886.416626 
	C1021.453796,1883.970337 1019.624939,1881.660522 1016.733276,1877.700806 
	C1011.643982,1908.750244 1017.436584,1937.528198 1021.894897,1968.156616 
	C1018.513184,1965.880859 1016.539734,1964.897095 1014.988525,1963.458130 
	C981.672546,1932.555664 955.509277,1896.231934 933.961121,1856.411133 
	C899.838501,1793.352661 880.110657,1725.554688 867.713989,1655.343262 
	C861.050293,1617.601685 857.541687,1579.593018 857.626343,1541.235474 
	C857.754333,1483.246704 866.658813,1426.591064 883.614990,1371.240845 
	C890.726440,1348.027100 899.208252,1325.232910 907.064758,1302.247314 
	C908.002747,1299.502686 908.925354,1296.752686 910.654480,1291.642822 
	C904.250183,1295.114746 899.535767,1297.156250 895.377869,1300.009033 
	C870.952332,1316.768311 846.657593,1333.718506 822.314575,1350.598389 
	C820.682434,1351.730225 819.016052,1352.812622 816.712097,1354.006470 
	C816.058594,1354.094849 816.137390,1354.229248 816.137329,1354.229248 
	C816.567261,1351.375610 816.505188,1348.336670 817.499634,1345.695557 
	C837.503967,1292.566406 863.256775,1242.356323 894.020020,1194.651978 
	C928.012329,1141.940430 967.232544,1093.343994 1009.516174,1047.154785 
	C1021.401367,1034.171875 1033.888306,1021.739929 1046.900635,1008.222778 
	C1055.917603,1015.173645 1060.170288,1023.825623 1060.133789,1034.105347 
	C1060.103394,1042.690552 1058.691772,1051.298462 1057.533447,1059.847778 
	C1051.248169,1106.234131 1044.739868,1152.590454 1038.617554,1198.998047 
	C1037.725342,1205.761230 1038.493774,1212.743774 1038.493774,1221.088989 
	C1044.121338,1216.150391 1049.136719,1212.051514 1053.814575,1207.598267 
	C1119.203247,1145.347168 1193.282593,1095.797729 1274.418579,1056.562012 
	C1283.698608,1052.074341 1293.127075,1047.893921 1302.895020,1043.044678 
	C1303.303223,1042.518311 1303.171997,1042.365967 1303.171997,1042.365967 
z"/>
<path fill="#FE1B22" opacity="1.000000" stroke="none" 
	d="
M2644.089600,1464.192993 
	C2658.008057,1463.582031 2671.989258,1461.843018 2685.830566,1462.614990 
	C2708.742920,1463.892456 2731.450928,1467.489380 2753.510986,1474.214966 
	C2804.966797,1489.902588 2851.616943,1514.031860 2888.943359,1553.612793 
	C2926.260010,1593.183838 2950.718018,1639.644409 2957.484863,1693.914917 
	C2966.531982,1766.475464 2945.179932,1830.312744 2896.682129,1884.530884 
	C2848.982666,1937.856323 2788.934570,1969.187134 2718.258545,1980.367554 
	C2690.806641,1984.710205 2663.259033,1984.723022 2635.627686,1983.570923 
	C2633.146729,1983.467285 2630.647461,1983.809692 2627.500488,1985.650024 
	C2630.285156,1987.697388 2632.957764,1989.921997 2635.871582,1991.764771 
	C2668.291016,2012.265991 2702.870605,2027.063965 2741.142822,2032.734863 
	C2768.083496,2036.726562 2794.773193,2035.639771 2821.456787,2031.017212 
	C2824.734619,2030.449463 2828.002930,2029.826050 2832.351562,2029.347168 
	C2833.427490,2029.465820 2834.030518,2030.023926 2834.030518,2030.023926 
	C2820.873291,2049.311523 2802.932373,2063.500244 2784.115723,2076.727295 
	C2742.287598,2106.130371 2695.483398,2123.506104 2645.828125,2134.148926 
	C2610.759033,2141.665527 2575.275146,2144.911621 2539.665771,2141.458740 
	C2435.902588,2131.396729 2358.057617,2081.457520 2309.072754,1988.526123 
	C2293.756592,1959.469238 2283.762207,1928.481323 2277.277344,1896.343750 
	C2275.978760,1889.908325 2275.209229,1883.366089 2274.030273,1875.814331 
	C2262.302246,1883.858887 2255.145996,1894.159668 2249.215820,1905.297119 
	C2238.590820,1925.250977 2233.198975,1946.609985 2231.472656,1969.222900 
	C2228.857666,2003.475830 2236.258057,2035.261719 2252.873047,2065.012451 
	C2257.384033,2073.090088 2263.076172,2080.508057 2268.743164,2089.004150 
	C2263.361084,2089.796387 2259.199463,2087.932617 2255.196045,2086.295654 
	C2182.772217,2056.681641 2137.079102,2004.206421 2120.251465,1927.443970 
	C2114.867432,1902.883789 2115.720703,1878.029541 2117.229492,1852.998413 
	C2119.169434,1820.816528 2122.086426,1788.574219 2119.618408,1756.262451 
	C2116.104736,1710.256592 2097.885498,1671.870972 2061.664307,1642.264160 
	C2002.666260,1594.040039 1943.939697,1545.481689 1885.334229,1496.780884 
	C1866.412354,1481.057007 1847.622559,1465.078735 1829.850220,1448.089355 
	C1801.900879,1421.371216 1785.917847,1388.327637 1781.751587,1349.725464 
	C1780.112793,1334.542603 1778.480469,1319.356445 1776.585938,1304.204346 
	C1773.658569,1280.791626 1761.725220,1262.510010 1743.688721,1247.912354 
	C1726.097900,1233.675415 1708.360229,1219.619873 1690.746216,1205.411499 
	C1669.352051,1188.153809 1653.740356,1166.916260 1648.868896,1139.441650 
	C1645.405518,1119.907837 1646.583984,1100.430908 1656.263916,1080.417236 
	C1657.733765,1084.271240 1658.926392,1086.710205 1659.606323,1089.284424 
	C1670.937256,1132.185059 1699.540283,1155.577148 1742.591064,1162.050781 
	C1760.312622,1164.715576 1778.232056,1166.051758 1796.049561,1168.096680 
	C1801.659790,1168.740601 1807.278809,1169.485718 1812.812134,1170.592896 
	C1844.395020,1176.912231 1861.476685,1197.207886 1867.746216,1227.869751 
	C1870.611450,1241.881470 1873.117554,1255.989502 1876.627930,1269.840698 
	C1880.785400,1286.244751 1889.427368,1299.226318 1907.292236,1303.172852 
	C1913.103516,1304.456543 1919.088013,1305.139526 1925.031738,1305.607178 
	C1945.235718,1307.196777 1965.548950,1307.798706 1985.648804,1310.209717 
	C2012.757080,1313.461304 2036.659912,1324.996704 2057.723877,1342.201782 
	C2104.112061,1380.091309 2150.311035,1418.212158 2196.684082,1456.120483 
	C2235.845215,1488.133423 2274.908447,1520.273438 2314.475098,1551.779663 
	C2335.194092,1568.277710 2358.932129,1578.163452 2385.773193,1580.073120 
	C2434.732910,1583.556274 2481.959473,1547.789551 2491.867188,1499.685303 
	C2495.287598,1483.076172 2495.047119,1466.660522 2491.552979,1450.159424 
	C2490.812012,1446.660645 2490.628418,1443.044067 2490.029541,1438.200684 
	C2492.596680,1439.395996 2494.100586,1439.829590 2495.296143,1440.691162 
	C2544.658203,1476.270508 2569.521729,1525.668579 2575.813477,1585.126831 
	C2578.926758,1614.547852 2576.248047,1643.537476 2565.765625,1671.534912 
	C2558.901123,1689.868896 2548.461914,1705.948730 2535.826172,1720.749512 
	C2531.574219,1725.729858 2527.592041,1730.940430 2523.075684,1736.556885 
	C2531.161377,1741.638306 2539.478271,1740.964844 2547.047607,1741.371460 
	C2578.135254,1743.041748 2608.911377,1740.496460 2638.742676,1730.822266 
	C2666.932373,1721.680786 2692.921631,1708.406738 2714.586182,1687.852661 
	C2758.916748,1645.794067 2764.297363,1581.813477 2732.343506,1531.722168 
	C2714.516113,1503.775513 2689.573486,1484.655396 2659.298340,1471.994751 
	C2654.691895,1470.068481 2650.086914,1468.139038 2644.824707,1465.565918 
	C2644.167969,1464.920776 2644.089600,1464.192993 2644.089600,1464.192993 
z"/>
<path fill="#FE1B22" opacity="1.000000" stroke="none" 
	d="
M1527.894165,888.250610 
	C1507.861694,884.569031 1487.822144,883.897034 1467.410889,885.342651 
	C1442.776123,887.087402 1418.460205,890.242737 1394.482422,895.896423 
	C1344.562012,907.666931 1298.405151,927.338928 1259.426147,961.621582 
	C1254.281616,966.146301 1249.578003,971.172180 1243.256714,977.346619 
	C1275.340210,983.197632 1305.246704,988.651550 1335.153076,994.105530 
	C1335.339111,994.759460 1335.525146,995.413452 1335.711182,996.067444 
	C1240.054199,1024.815063 1157.076660,1075.921509 1081.515015,1140.105225 
	C1081.035645,1139.658569 1080.556274,1139.211792 1080.076904,1138.765137 
	C1081.922119,1131.763794 1083.703979,1124.744873 1085.624146,1117.764160 
	C1091.915771,1094.892944 1096.057739,1071.655273 1095.536743,1047.892822 
	C1095.132568,1029.465088 1092.276489,1011.496155 1081.349365,995.722595 
	C1070.214233,979.648926 1054.770020,969.937744 1036.476685,964.205017 
	C1015.838501,957.737549 994.554321,956.692566 973.241821,958.048889 
	C955.699158,959.165344 938.263184,961.887634 920.753052,963.627319 
	C915.670776,964.132324 910.495789,963.704834 904.581055,962.004517 
	C912.120239,955.751038 919.496033,949.287170 927.227905,943.281799 
	C955.469604,921.346313 986.649719,904.120239 1017.775879,886.760071 
	C1050.901611,868.284607 1083.764648,849.335266 1116.614502,830.371155 
	C1122.047974,827.234375 1127.065674,823.243896 1131.860962,819.160828 
	C1145.686646,807.388733 1148.894653,794.030151 1142.283081,777.087952 
	C1136.762695,762.942017 1128.019409,750.730042 1118.473999,739.172058 
	C1101.394287,718.491394 1081.059204,701.364197 1058.853882,686.410583 
	C1055.086060,683.873352 1051.327637,681.322449 1047.863159,677.736694 
	C1065.500488,674.742554 1082.947754,675.281982 1100.334106,676.211426 
	C1118.239380,677.168518 1136.188110,678.273743 1153.956055,680.568176 
	C1171.312988,682.809509 1188.465698,686.634155 1207.829224,690.148804 
	C1180.367310,640.163025 1173.442139,589.003296 1187.742798,533.348938 
	C1190.018433,536.788635 1191.402344,538.488831 1192.369385,540.399841 
	C1211.589600,578.382019 1239.754150,608.512878 1274.045410,633.186157 
	C1308.425049,657.922974 1345.431274,678.420227 1381.867432,699.859741 
	C1406.240112,714.200928 1430.338501,729.065186 1453.970093,744.592712 
	C1477.280884,759.909485 1495.601562,780.713745 1513.233032,802.071960 
	C1514.705078,803.854858 1516.451050,805.411621 1519.031738,807.188477 
	C1519.571167,806.120850 1519.148315,804.938049 1518.725586,803.755249 
	C1502.481445,756.892151 1471.260498,721.450745 1431.453857,693.703308 
	C1410.820679,679.320618 1401.056274,660.970154 1397.564331,636.907043 
	C1389.038696,578.158630 1394.935791,520.838074 1412.393921,464.458008 
	C1415.730103,453.683960 1419.675659,443.052032 1424.109253,432.683502 
	C1426.407104,427.309387 1430.389282,422.655396 1435.634033,417.712677 
	C1436.308838,421.320129 1437.452026,424.909973 1437.588379,428.537659 
	C1439.818237,487.880219 1462.038574,539.464539 1500.675293,583.563782 
	C1524.108154,610.309509 1550.127930,634.821411 1575.444458,659.873047 
	C1593.419067,677.659546 1612.079102,694.758606 1630.580811,712.005859 
	C1650.780518,730.835815 1671.260864,749.365173 1691.418945,768.239075 
	C1716.941772,792.135803 1741.922974,816.558044 1762.738525,844.857178 
	C1766.481689,849.946167 1770.579468,854.774353 1775.336182,860.430969 
	C1776.552002,860.409058 1776.945068,859.679138 1777.338013,858.949219 
	C1768.960205,837.336975 1756.493164,818.063538 1742.915894,799.487122 
	C1722.217651,771.167603 1698.426147,745.633362 1672.593872,721.925537 
	C1654.939087,705.722656 1637.683594,689.085510 1620.173950,672.723511 
	C1601.207764,655.000244 1582.609985,636.843506 1562.989136,619.872864 
	C1548.179077,607.063171 1540.781860,591.158813 1538.349976,572.402710 
	C1532.886719,530.265930 1537.945557,489.452728 1554.432129,450.203979 
	C1556.455200,445.388184 1559.323975,440.927643 1563.498657,436.479553 
	C1564.218018,441.117889 1565.313965,445.733246 1565.598267,450.398071 
	C1568.525024,498.414856 1586.315308,540.865051 1614.075439,579.491028 
	C1629.061279,600.342651 1645.733643,619.844788 1664.256470,637.643616 
	C1698.583496,670.628784 1733.126221,703.390076 1767.629883,736.191162 
	C1795.388306,762.580200 1823.252563,788.867981 1846.743652,819.307800 
	C1869.269775,848.497192 1888.087402,879.794861 1899.508301,915.064270 
	C1907.606689,940.073669 1910.243774,965.756653 1907.140381,991.940125 
	C1906.262817,999.344666 1908.401978,1003.817322 1915.052856,1007.305115 
	C1924.548096,1012.284607 1933.432129,1017.872192 1940.291504,1026.448853 
	C1948.857788,1037.159668 1950.814697,1049.864380 1952.299683,1064.153442 
	C1982.565796,1054.430420 2002.063232,1033.142212 2019.309082,1005.885559 
	C2020.459351,1010.443115 2021.269775,1013.011108 2021.744141,1015.639648 
	C2024.732666,1032.196411 2023.811157,1048.838623 2021.485229,1065.285400 
	C2014.490234,1114.747803 1995.931763,1159.508789 1965.271118,1199.074219 
	C1952.532104,1215.512817 1937.761963,1229.851685 1919.944336,1240.784424 
	C1916.084229,1243.152954 1911.834839,1244.887085 1905.727051,1247.927734 
	C1906.527710,1241.357422 1907.163696,1236.967041 1907.582764,1232.556152 
	C1909.393188,1213.496460 1909.492920,1194.562378 1900.998535,1176.784180 
	C1893.695679,1161.499512 1881.886841,1150.633423 1866.760010,1143.118774 
	C1850.970459,1135.274658 1833.972656,1132.069824 1816.729980,1130.446167 
	C1794.567993,1128.359375 1772.316040,1127.231689 1750.107056,1125.633911 
	C1747.896240,1125.474731 1745.713989,1124.921265 1742.460938,1124.372314 
	C1746.862549,1114.928589 1751.269531,1106.458740 1754.797607,1097.637573 
	C1758.614380,1088.094238 1761.651367,1078.236450 1764.930054,1068.482788 
	C1765.560547,1066.607056 1765.877808,1064.593994 1766.097900,1062.617554 
	C1768.003296,1045.509521 1760.459717,1034.735840 1743.385986,1032.315674 
	C1723.666260,1029.520508 1703.826294,1026.600830 1683.966309,1025.955688 
	C1630.166992,1024.207886 1576.969238,1029.364990 1524.860596,1043.566895 
	C1520.373413,1044.789917 1515.977173,1046.346924 1510.267212,1047.977661 
	C1508.062744,1049.002808 1507.129761,1049.799194 1506.196655,1050.595459 
	C1507.534912,1050.895020 1508.873169,1051.194458 1510.211426,1051.493896 
	C1540.343628,1053.471191 1570.493530,1055.336304 1600.422729,1065.080322 
	C1597.856689,1073.568481 1595.446289,1081.428589 1593.104980,1089.309204 
	C1587.233887,1109.069336 1581.407715,1128.842896 1575.536499,1148.603027 
	C1572.706543,1158.127808 1574.842529,1167.186279 1578.766235,1175.756836 
	C1584.766113,1188.862061 1596.396484,1192.936279 1609.320068,1186.363647 
	C1615.441895,1183.250244 1620.906982,1178.844971 1628.240234,1173.984009 
	C1627.776855,1178.553711 1627.635132,1181.942749 1627.062744,1185.257324 
	C1624.235107,1201.633179 1620.988647,1217.943726 1618.542969,1234.374634 
	C1617.575073,1240.876953 1617.595825,1247.716553 1618.391846,1254.253418 
	C1620.317749,1270.067871 1630.470581,1279.520752 1646.317017,1280.133301 
	C1655.258057,1280.478882 1664.251709,1279.507690 1673.219727,1279.088623 
	C1675.782593,1278.968872 1678.338745,1278.706421 1682.809937,1278.362305 
	C1681.282227,1282.884399 1680.525635,1286.260132 1679.052856,1289.287354 
	C1672.511841,1302.733521 1662.442139,1313.481812 1651.193359,1322.903809 
	C1615.082520,1353.151123 1574.162476,1373.881714 1527.711060,1382.804932 
	C1517.989990,1384.672241 1507.916504,1384.706055 1497.155273,1385.134399 
	C1496.304932,1384.683960 1496.053223,1384.069824 1496.053223,1384.069824 
	C1505.055298,1376.744507 1514.315918,1369.711548 1523.000122,1362.027100 
	C1536.837524,1349.783081 1547.834839,1335.214111 1556.275635,1318.761719 
	C1557.139282,1317.078125 1557.527222,1315.150269 1558.616821,1311.901978 
	C1531.687012,1313.075195 1506.243408,1319.105591 1479.567993,1320.108398 
	C1480.371338,1314.385254 1484.281494,1312.717163 1486.976685,1310.148926 
	C1523.060791,1275.762207 1538.672607,1233.834961 1530.011230,1184.642212 
	C1523.688599,1148.732178 1500.081055,1125.224243 1467.819092,1110.394897 
	C1450.512817,1102.439941 1431.995361,1098.855591 1412.795288,1097.438232 
	C1377.300781,1094.817871 1344.196533,1102.177490 1312.615601,1117.876831 
	C1312.343018,1118.012329 1311.957642,1117.921387 1310.683105,1117.977783 
	C1311.208984,1115.751587 1311.376831,1113.630859 1312.192627,1111.798584 
	C1324.067749,1085.127808 1339.736084,1060.951050 1359.793335,1039.665649 
	C1381.448853,1016.684265 1406.394287,998.054260 1434.158936,983.103882 
	C1436.655640,981.759399 1438.881470,979.911987 1442.441772,977.468628 
	C1409.536499,966.751648 1377.283936,959.466431 1342.638794,951.801636 
	C1347.291870,948.666748 1350.030884,946.590149 1352.978149,944.870605 
	C1396.921997,919.230896 1444.362061,903.664124 1494.508301,895.995178 
	C1505.011108,894.388977 1515.568848,893.140503 1527.518555,891.781372 
	C1530.402466,891.724731 1531.869019,891.613953 1534.101074,891.445251 
	C1532.849365,890.095154 1532.348877,889.130493 1531.588013,888.834290 
	C1530.453003,888.392395 1529.134521,888.421753 1527.894165,888.250610 
M1732.817871,916.169434 
	C1719.178955,901.161255 1702.603271,890.154846 1684.615356,881.174255 
	C1680.968140,879.353455 1677.149048,876.425537 1671.773682,879.355652 
	C1675.716553,890.616272 1679.156250,902.037903 1683.681641,913.011780 
	C1691.673828,932.392334 1703.239624,949.388367 1720.420410,961.873413 
	C1734.844849,972.355469 1750.941650,977.502991 1770.323486,975.733398 
	C1762.056519,952.921021 1749.984375,933.808228 1732.817871,916.169434 
M1521.085938,810.947754 
	C1521.085938,810.947754 1520.947021,811.011475 1521.085938,810.947754 
z"/>
<path fill="#FE1B22" opacity="1.000000" stroke="none" 
	d="
M1310.204346,54.178703 
	C1308.376221,61.583572 1306.572144,68.994476 1304.714722,76.391983 
	C1301.461060,89.350540 1299.194580,102.433121 1299.703735,115.864166 
	C1299.763306,117.434822 1300.062256,118.996414 1300.438110,122.128754 
	C1305.723877,117.920197 1310.239014,114.763870 1314.251953,111.063080 
	C1362.210815,66.836494 1419.293091,41.686054 1482.872070,29.861341 
	C1515.389404,23.813627 1548.192749,20.852652 1581.162964,22.489824 
	C1657.776855,26.294155 1729.234131,47.425465 1793.782227,89.487717 
	C1840.957397,120.229126 1877.805420,160.898239 1905.224365,210.031769 
	C1932.281738,258.517548 1949.713745,310.436737 1957.369995,365.313751 
	C1964.433838,415.943695 1960.878540,466.297546 1947.892090,515.769836 
	C1925.916504,599.486938 1890.182617,676.620667 1836.702026,745.102905 
	C1834.888794,747.424683 1832.902100,749.611023 1830.597778,752.330688 
	C1826.054199,748.393616 1821.678101,744.885071 1817.620850,741.040283 
	C1790.317261,715.167236 1763.102173,689.200684 1735.816162,663.308960 
	C1717.467407,645.897644 1698.653320,628.953674 1680.814941,611.036438 
	C1670.524414,600.700378 1661.183350,589.269409 1652.531006,577.509949 
	C1647.572876,570.771179 1648.433105,562.590637 1652.516968,554.848206 
	C1659.496460,541.616150 1666.693115,528.437988 1672.637085,514.733398 
	C1684.108765,488.283752 1690.161377,460.508942 1692.556885,431.684967 
	C1695.467163,396.665558 1692.383423,362.466400 1680.474243,329.489044 
	C1659.377686,271.072113 1618.499146,234.033676 1556.673584,225.078903 
	C1502.072021,217.170441 1454.831543,234.659470 1417.689819,276.610870 
	C1393.679565,303.730499 1378.843506,335.163147 1372.827637,370.903198 
	C1368.570435,396.195374 1370.375610,421.276764 1374.509766,446.316132 
	C1376.268188,456.966644 1376.367432,467.470856 1373.712646,477.964691 
	C1362.173096,523.576721 1359.740112,569.943909 1362.427368,616.702881 
	C1362.845703,623.982300 1364.224121,631.202148 1364.971680,638.468811 
	C1365.369507,642.334412 1365.366455,646.241333 1365.634888,652.117249 
	C1320.519897,630.032227 1282.901611,601.353943 1251.789673,564.174744 
	C1220.863159,527.216980 1199.799438,484.927521 1184.472656,439.152283 
	C1151.325562,508.398956 1138.899048,580.171143 1156.744995,657.367188 
	C1147.015747,651.415527 1141.845459,643.631470 1135.984619,636.676147 
	C1101.184692,595.378052 1081.485107,547.239075 1071.801636,494.536682 
	C1064.529297,454.956543 1063.965088,415.003174 1066.601929,375.133209 
	C1069.654907,328.971466 1082.836548,285.569458 1107.992188,246.274185 
	C1110.460205,242.418884 1113.294800,238.798309 1117.499512,232.913086 
	C1120.953247,263.251038 1122.583496,291.644623 1135.689697,320.176147 
	C1160.782104,208.641327 1216.634521,119.566734 1308.734985,53.599617 
	C1309.610840,53.567207 1310.204346,54.178699 1310.204346,54.178703 
z"/>
<path fill="#FE1B22" opacity="1.000000" stroke="none" 
	d="
M2555.651855,902.931091 
	C2532.268799,900.928528 2509.149414,903.724609 2486.123535,907.167236 
	C2408.569336,918.762451 2337.646484,948.336670 2270.246094,987.333069 
	C2220.984375,1015.835022 2175.597656,1049.399048 2136.073486,1090.540405 
	C2128.290527,1098.641846 2121.046387,1107.260986 2113.529297,1115.668823 
	C2108.509033,1113.807617 2110.634766,1110.349854 2111.801270,1107.495239 
	C2117.968750,1092.401733 2123.898193,1077.192871 2130.641357,1062.356079 
	C2155.931641,1006.709534 2189.798828,956.623047 2231.097900,911.729126 
	C2264.794434,875.099426 2302.347656,842.702881 2343.662598,814.805542 
	C2345.957275,813.256104 2348.575684,812.185486 2351.043213,810.891907 
	C2351.606934,811.408813 2352.170410,811.925781 2352.734131,812.442688 
	C2351.024414,815.417053 2349.269531,818.366516 2347.613037,821.370178 
	C2338.139160,838.546753 2328.561768,855.668152 2319.295898,872.956360 
	C2315.865723,879.356445 2313.835693,886.630066 2319.777100,892.436584 
	C2325.145264,897.683044 2332.090820,896.040527 2338.645996,893.939270 
	C2350.293457,890.205444 2360.091309,883.283264 2369.516602,875.851929 
	C2394.351807,856.270569 2418.846436,836.253845 2443.837402,816.875061 
	C2472.899658,794.338684 2503.443604,774.098877 2538.927979,762.970215 
	C2553.162842,758.505859 2567.895752,755.619507 2582.431885,752.140442 
	C2583.836182,751.804382 2585.453857,752.359375 2588.683838,752.660156 
	C2585.063721,755.393127 2582.831787,757.232971 2580.449219,758.850342 
	C2567.494385,767.645142 2554.545410,776.449768 2541.508301,785.121399 
	C2532.475586,791.129395 2525.192627,798.819214 2519.387695,807.879700 
	C2517.634766,810.615540 2516.384277,813.822632 2515.573730,816.985474 
	C2512.979980,827.106140 2519.441406,836.644897 2529.794922,836.011536 
	C2539.949463,835.390320 2550.247559,833.307495 2559.974854,830.249878 
	C2586.330811,821.965576 2612.517090,813.268311 2639.632812,807.576782 
	C2698.856445,795.145935 2757.460938,798.102966 2815.256348,815.056946 
	C2885.654053,835.707642 2948.083252,871.216919 3003.484619,919.145142 
	C3013.206787,927.556091 3022.280273,936.717102 3030.960693,947.209778 
	C3023.381348,946.025635 3015.804932,944.823975 3008.222656,943.660461 
	C2982.119141,939.654785 2955.957520,939.568359 2929.642334,941.512207 
	C2887.989014,944.588989 2847.312744,952.714417 2807.126221,963.682556 
	C2773.198486,972.942505 2740.912598,986.104126 2711.326904,1005.287109 
	C2704.766846,1009.540588 2699.303223,1009.689087 2692.136475,1006.505981 
	C2674.216064,998.546326 2656.222168,990.391968 2637.555176,984.568542 
	C2616.910889,978.128418 2595.281250,976.287354 2573.536621,975.469360 
	C2541.218506,974.253784 2509.887451,978.322815 2479.395752,989.060303 
	C2447.870605,1000.161560 2419.854980,1017.181152 2395.095703,1039.500244 
	C2361.516357,1069.769897 2334.205078,1105.509277 2307.525635,1141.679810 
	C2264.901123,1199.467773 2228.989258,1261.360107 2197.032959,1325.581543 
	C2189.471436,1340.777954 2182.555420,1356.294800 2175.287598,1371.638306 
	C2173.032227,1376.399780 2170.596191,1381.075562 2167.519775,1387.238770 
	C2157.242432,1379.367310 2147.664795,1372.399292 2138.493896,1364.931763 
	C2118.882812,1348.963379 2099.722656,1332.433594 2079.923096,1316.706177 
	C2062.395264,1302.783325 2043.463989,1290.985718 2022.432007,1282.879761 
	C2020.952148,1282.309448 2019.627930,1281.335327 2017.194824,1279.965332 
	C2019.453735,1276.604736 2021.303955,1273.602051 2023.395752,1270.778320 
	C2049.172852,1235.980957 2076.685791,1202.637695 2105.808105,1170.561279 
	C2168.660645,1101.333496 2239.381592,1041.615479 2319.005127,992.534058 
	C2376.667725,956.989746 2437.734863,929.463379 2504.252197,915.166382 
	C2520.814453,911.606567 2537.609375,909.129822 2555.609131,906.055603 
	C2558.056396,905.528442 2559.191895,905.100891 2560.327393,904.673340 
	C2558.768799,904.092590 2557.210449,903.511841 2555.651855,902.931091 
z"/>
<path fill="#81553F" opacity="1.000000" stroke="none" 
	d="
M2555.625732,903.408813 
	C2557.210449,903.511841 2558.768799,904.092590 2560.327393,904.673340 
	C2559.191895,905.100891 2558.056396,905.528442 2556.406250,905.866821 
	C2555.798584,905.146606 2555.701172,904.516235 2555.625732,903.408813 
z"/>
<path fill="#7B5841" opacity="1.000000" stroke="none" 
	d="
M1527.854980,888.785950 
	C1529.134521,888.421753 1530.453003,888.392395 1531.588013,888.834290 
	C1532.348877,889.130493 1532.849365,890.095154 1534.101074,891.445251 
	C1531.869019,891.613953 1530.402466,891.724731 1528.369385,891.650757 
	C1527.807129,890.751038 1527.811523,890.036133 1527.854980,888.785950 
z"/>
<path fill="#81553F" opacity="1.000000" stroke="none" 
	d="
M1510.225098,1050.948242 
	C1508.873169,1051.194458 1507.534912,1050.895020 1506.196655,1050.595459 
	C1507.129761,1049.799194 1508.062744,1049.002808 1509.552490,1048.214600 
	C1510.152466,1048.949341 1510.195557,1049.675903 1510.225098,1050.948242 
z"/>
<path fill="#B33E33" opacity="1.000000" stroke="none" 
	d="
M1518.881958,804.802734 
	C1519.148315,804.938049 1519.571167,806.120850 1519.735596,807.612976 
	C1519.331055,807.231628 1519.184814,806.540955 1518.881958,804.802734 
z"/>
<path fill="#FF1B22" opacity="1.000000" stroke="none" 
	d="
M1303.295166,1042.413330 
	C1303.286987,1042.308350 1303.361450,1042.902954 1303.361450,1042.902954 
	C1303.361450,1042.902954 1303.695801,1042.626831 1303.433838,1042.496338 
	C1303.171997,1042.365967 1303.303223,1042.518311 1303.295166,1042.413330 
z"/>
<path fill="#FF1B22" opacity="1.000000" stroke="none" 
	d="
M816.015381,1354.030029 
	C815.811829,1354.211670 815.651550,1354.458252 815.491211,1354.704956 
	C815.313110,1354.576904 815.134888,1354.448975 814.956787,1354.320923 
	C815.158447,1354.121338 815.360107,1353.921753 815.849609,1353.975586 
	C816.137390,1354.229248 816.058594,1354.094849 816.015381,1354.030029 
z"/>
<path fill="#C6352E" opacity="1.000000" stroke="none" 
	d="
M1495.729004,1384.179077 
	C1496.053223,1384.069824 1496.304932,1384.683960 1496.286621,1385.015259 
	C1495.980469,1384.993774 1495.692627,1384.641113 1495.729004,1384.179077 
z"/>
<path fill="#CD322D" opacity="1.000000" stroke="none" 
	d="
M2643.709717,1464.244019 
	C2644.089600,1464.192993 2644.167969,1464.920776 2644.155273,1465.286621 
	C2643.871582,1465.199829 2643.600830,1464.747437 2643.709717,1464.244019 
z"/>
<path fill="#FE1B22" opacity="1.000000" stroke="none" 
	d="
M2833.135498,2029.176880 
	C2833.457520,2029.149902 2834.071289,2029.411743 2834.357910,2029.848755 
	C2834.030518,2030.023926 2833.427490,2029.465820 2833.135498,2029.176880 
z"/>
<path fill="#FE1B22" opacity="1.000000" stroke="none" 
	d="
M1309.317627,53.258022 
	C1309.654907,53.228592 1310.285278,53.508343 1310.560059,53.983398 
	C1310.204346,54.178699 1309.610840,53.567207 1309.317627,53.258022 
z"/>
<path fill="#4B6E4B" opacity="1.000000" stroke="none" 
	d="
M1733.301758,916.685303 
	C1749.984375,933.808228 1762.056519,952.921021 1770.323486,975.733398 
	C1750.941650,977.502991 1734.844849,972.355469 1720.420410,961.873413 
	C1703.239624,949.388367 1691.673828,932.392334 1683.681641,913.011780 
	C1679.156250,902.037903 1675.716553,890.616272 1671.773682,879.355652 
	C1677.149048,876.425537 1680.968140,879.353455 1684.615356,881.174255 
	C1702.603271,890.154846 1719.178955,901.161255 1733.301758,916.685303 
z"/>
<path fill="#47704C" opacity="1.000000" stroke="none" 
	d="
M1776.933350,859.278809 
	C1776.945068,859.679138 1776.552002,860.409058 1775.947754,860.713745 
	C1776.000610,860.061890 1776.264526,859.835205 1776.933350,859.278809 
z"/>
<path fill="#B33E33" opacity="1.000000" stroke="none" 
	d="
M1521.016479,810.979614 
	C1520.947021,811.011475 1521.085938,810.947754 1521.016479,810.979614 
z"/>
</svg>